<?xml version="1.0" standalone="no"?>
<!DOCTYPE svg PUBLIC "-//W3C//DTD SVG 20010904//EN"
 "http://www.w3.org/TR/2001/REC-SVG-20010904/DTD/svg10.dtd">
<svg version="1.0" xmlns="http://www.w3.org/2000/svg"
 width="75.000000pt" height="75.000000pt" viewBox="0 0 75.000000 75.000000"
 preserveAspectRatio="xMidYMid meet">

<g transform="translate(0.000000,75.000000) scale(0.100000,-0.100000)"
fill="red" stroke="none">
<path d="M370 712 c-8 -3 -86 -73 -173 -155 -125 -118 -157 -155 -155 -173 3
-26 303 -344 324 -344 20 0 344 309 344 329 0 15 -287 328 -313 342 -7 4 -19
4 -27 1z m40 -251 c0 -126 -7 -161 -31 -161 -16 0 -19 8 -19 48 0 26 -3 84 -7
130 l-6 82 32 0 31 0 0 -99z m-5 -231 c0 -18 -6 -26 -23 -28 -27 -4 -40 22
-22 44 19 22 45 13 45 -16z"/>
</g>
</svg>
